<?xml version="1.0" encoding="UTF-8" standalone="no"?>
<!-- Created with Inkscape (http://www.inkscape.org/) -->

<svg
   width="210mm"
   height="297mm"
   viewBox="0 0 210 297"
   version="1.1"
   id="svg7942"
   inkscape:version="1.2.2 (b0a8486541, 2022-12-01)"
   sodipodi:docname="spiral_arms.svg"
   xmlns:inkscape="http://www.inkscape.org/namespaces/inkscape"
   xmlns:sodipodi="http://sodipodi.sourceforge.net/DTD/sodipodi-0.dtd"
   xmlns="http://www.w3.org/2000/svg"
   xmlns:svg="http://www.w3.org/2000/svg">
  <sodipodi:namedview
     id="namedview7944"
     pagecolor="#ffffff"
     bordercolor="#000000"
     borderopacity="0.25"
     inkscape:showpageshadow="2"
     inkscape:pageopacity="0.0"
     inkscape:pagecheckerboard="0"
     inkscape:deskcolor="#d1d1d1"
     inkscape:document-units="mm"
     showgrid="false"
     inkscape:zoom="1.0973349"
     inkscape:cx="380.92291"
     inkscape:cy="419.65311"
     inkscape:window-width="1920"
     inkscape:window-height="1008"
     inkscape:window-x="0"
     inkscape:window-y="0"
     inkscape:window-maximized="1"
     inkscape:current-layer="layer2" />
  <defs
     id="defs7939">
    <clipPath
       id="p809490971e">
      <rect
         x="467.42001"
         y="25.440001"
         width="364.60001"
         height="364.60001"
         id="rect3472" />
    </clipPath>
    <clipPath
       id="clipPath5661">
      <rect
         x="467.42001"
         y="25.440001"
         width="364.60001"
         height="364.60001"
         id="rect5659" />
    </clipPath>
    <clipPath
       id="clipPath5665">
      <rect
         x="467.42001"
         y="25.440001"
         width="364.60001"
         height="364.60001"
         id="rect5663" />
    </clipPath>
    <clipPath
       id="clipPath5669">
      <rect
         x="467.42001"
         y="25.440001"
         width="364.60001"
         height="364.60001"
         id="rect5667" />
    </clipPath>
    <clipPath
       id="clipPath5673">
      <rect
         x="467.42001"
         y="25.440001"
         width="364.60001"
         height="364.60001"
         id="rect5671" />
    </clipPath>
    <clipPath
       id="clipPath5677">
      <rect
         x="467.42001"
         y="25.440001"
         width="364.60001"
         height="364.60001"
         id="rect5675" />
    </clipPath>
    <clipPath
       id="clipPath5681">
      <rect
         x="467.42001"
         y="25.440001"
         width="364.60001"
         height="364.60001"
         id="rect5679" />
    </clipPath>
    <clipPath
       id="clipPath5685">
      <rect
         x="467.42001"
         y="25.440001"
         width="364.60001"
         height="364.60001"
         id="rect5683" />
    </clipPath>
    <clipPath
       id="clipPath5689">
      <rect
         x="467.42001"
         y="25.440001"
         width="364.60001"
         height="364.60001"
         id="rect5687" />
    </clipPath>
    <clipPath
       id="clipPath5693">
      <rect
         x="467.42001"
         y="25.440001"
         width="364.60001"
         height="364.60001"
         id="rect5691" />
    </clipPath>
    <clipPath
       id="clipPath5697">
      <rect
         x="467.42001"
         y="25.440001"
         width="364.60001"
         height="364.60001"
         id="rect5695" />
    </clipPath>
    <clipPath
       id="clipPath5701">
      <rect
         x="467.42001"
         y="25.440001"
         width="364.60001"
         height="364.60001"
         id="rect5699" />
    </clipPath>
    <clipPath
       id="clipPath5705">
      <rect
         x="467.42001"
         y="25.440001"
         width="364.60001"
         height="364.60001"
         id="rect5703" />
    </clipPath>
    <clipPath
       id="clipPath5709">
      <rect
         x="467.42001"
         y="25.440001"
         width="364.60001"
         height="364.60001"
         id="rect5707" />
    </clipPath>
    <clipPath
       id="clipPath5713">
      <rect
         x="467.42001"
         y="25.440001"
         width="364.60001"
         height="364.60001"
         id="rect5711" />
    </clipPath>
    <clipPath
       id="clipPath5717">
      <rect
         x="467.42001"
         y="25.440001"
         width="364.60001"
         height="364.60001"
         id="rect5715" />
    </clipPath>
    <clipPath
       id="clipPath5721">
      <rect
         x="467.42001"
         y="25.440001"
         width="364.60001"
         height="364.60001"
         id="rect5719" />
    </clipPath>
    <clipPath
       id="clipPath5725">
      <rect
         x="467.42001"
         y="25.440001"
         width="364.60001"
         height="364.60001"
         id="rect5723" />
    </clipPath>
    <clipPath
       id="clipPath5729">
      <rect
         x="467.42001"
         y="25.440001"
         width="364.60001"
         height="364.60001"
         id="rect5727" />
    </clipPath>
    <clipPath
       id="clipPath5733">
      <rect
         x="467.42001"
         y="25.440001"
         width="364.60001"
         height="364.60001"
         id="rect5731" />
    </clipPath>
    <clipPath
       id="clipPath5737">
      <rect
         x="467.42001"
         y="25.440001"
         width="364.60001"
         height="364.60001"
         id="rect5735" />
    </clipPath>
    <clipPath
       id="clipPath5741">
      <rect
         x="467.42001"
         y="25.440001"
         width="364.60001"
         height="364.60001"
         id="rect5739" />
    </clipPath>
    <clipPath
       id="clipPath5745">
      <rect
         x="467.42001"
         y="25.440001"
         width="364.60001"
         height="364.60001"
         id="rect5743" />
    </clipPath>
    <clipPath
       id="clipPath5749">
      <rect
         x="467.42001"
         y="25.440001"
         width="364.60001"
         height="364.60001"
         id="rect5747" />
    </clipPath>
    <clipPath
       id="clipPath5753">
      <rect
         x="467.42001"
         y="25.440001"
         width="364.60001"
         height="364.60001"
         id="rect5751" />
    </clipPath>
    <clipPath
       id="clipPath5757">
      <rect
         x="467.42001"
         y="25.440001"
         width="364.60001"
         height="364.60001"
         id="rect5755" />
    </clipPath>
    <clipPath
       id="clipPath5761">
      <rect
         x="467.42001"
         y="25.440001"
         width="364.60001"
         height="364.60001"
         id="rect5759" />
    </clipPath>
    <clipPath
       id="clipPath5765">
      <rect
         x="467.42001"
         y="25.440001"
         width="364.60001"
         height="364.60001"
         id="rect5763" />
    </clipPath>
    <clipPath
       id="clipPath5769">
      <rect
         x="467.42001"
         y="25.440001"
         width="364.60001"
         height="364.60001"
         id="rect5767" />
    </clipPath>
    <clipPath
       id="clipPath5773">
      <rect
         x="467.42001"
         y="25.440001"
         width="364.60001"
         height="364.60001"
         id="rect5771" />
    </clipPath>
    <clipPath
       id="clipPath5777">
      <rect
         x="467.42001"
         y="25.440001"
         width="364.60001"
         height="364.60001"
         id="rect5775" />
    </clipPath>
    <clipPath
       id="clipPath5781">
      <rect
         x="467.42001"
         y="25.440001"
         width="364.60001"
         height="364.60001"
         id="rect5779" />
    </clipPath>
    <clipPath
       id="clipPath5785">
      <rect
         x="467.42001"
         y="25.440001"
         width="364.60001"
         height="364.60001"
         id="rect5783" />
    </clipPath>
    <clipPath
       id="clipPath5789">
      <rect
         x="467.42001"
         y="25.440001"
         width="364.60001"
         height="364.60001"
         id="rect5787" />
    </clipPath>
    <clipPath
       id="clipPath5793">
      <rect
         x="467.42001"
         y="25.440001"
         width="364.60001"
         height="364.60001"
         id="rect5791" />
    </clipPath>
    <clipPath
       id="clipPath5797">
      <rect
         x="467.42001"
         y="25.440001"
         width="364.60001"
         height="364.60001"
         id="rect5795" />
    </clipPath>
    <clipPath
       id="clipPath5801">
      <rect
         x="467.42001"
         y="25.440001"
         width="364.60001"
         height="364.60001"
         id="rect5799" />
    </clipPath>
    <clipPath
       id="clipPath5805">
      <rect
         x="467.42001"
         y="25.440001"
         width="364.60001"
         height="364.60001"
         id="rect5803" />
    </clipPath>
    <clipPath
       id="clipPath5809">
      <rect
         x="467.42001"
         y="25.440001"
         width="364.60001"
         height="364.60001"
         id="rect5807" />
    </clipPath>
    <clipPath
       id="clipPath5813">
      <rect
         x="467.42001"
         y="25.440001"
         width="364.60001"
         height="364.60001"
         id="rect5811" />
    </clipPath>
    <clipPath
       id="clipPath5817">
      <rect
         x="467.42001"
         y="25.440001"
         width="364.60001"
         height="364.60001"
         id="rect5815" />
    </clipPath>
    <clipPath
       id="clipPath5821">
      <rect
         x="467.42001"
         y="25.440001"
         width="364.60001"
         height="364.60001"
         id="rect5819" />
    </clipPath>
    <clipPath
       id="clipPath5825">
      <rect
         x="467.42001"
         y="25.440001"
         width="364.60001"
         height="364.60001"
         id="rect5823" />
    </clipPath>
    <clipPath
       id="clipPath5829">
      <rect
         x="467.42001"
         y="25.440001"
         width="364.60001"
         height="364.60001"
         id="rect5827" />
    </clipPath>
    <clipPath
       id="clipPath5833">
      <rect
         x="467.42001"
         y="25.440001"
         width="364.60001"
         height="364.60001"
         id="rect5831" />
    </clipPath>
    <clipPath
       id="clipPath5837">
      <rect
         x="467.42001"
         y="25.440001"
         width="364.60001"
         height="364.60001"
         id="rect5835" />
    </clipPath>
    <clipPath
       id="clipPath5841">
      <rect
         x="467.42001"
         y="25.440001"
         width="364.60001"
         height="364.60001"
         id="rect5839" />
    </clipPath>
    <clipPath
       id="clipPath5845">
      <rect
         x="467.42001"
         y="25.440001"
         width="364.60001"
         height="364.60001"
         id="rect5843" />
    </clipPath>
    <clipPath
       id="clipPath5849">
      <rect
         x="467.42001"
         y="25.440001"
         width="364.60001"
         height="364.60001"
         id="rect5847" />
    </clipPath>
    <clipPath
       id="clipPath5853">
      <rect
         x="467.42001"
         y="25.440001"
         width="364.60001"
         height="364.60001"
         id="rect5851" />
    </clipPath>
    <clipPath
       id="clipPath5857">
      <rect
         x="467.42001"
         y="25.440001"
         width="364.60001"
         height="364.60001"
         id="rect5855" />
    </clipPath>
    <clipPath
       id="clipPath5861">
      <rect
         x="467.42001"
         y="25.440001"
         width="364.60001"
         height="364.60001"
         id="rect5859" />
    </clipPath>
    <clipPath
       id="clipPath5865">
      <rect
         x="467.42001"
         y="25.440001"
         width="364.60001"
         height="364.60001"
         id="rect5863" />
    </clipPath>
    <clipPath
       id="clipPath5869">
      <rect
         x="467.42001"
         y="25.440001"
         width="364.60001"
         height="364.60001"
         id="rect5867" />
    </clipPath>
    <clipPath
       id="clipPath5873">
      <rect
         x="467.42001"
         y="25.440001"
         width="364.60001"
         height="364.60001"
         id="rect5871" />
    </clipPath>
    <clipPath
       id="clipPath5877">
      <rect
         x="467.42001"
         y="25.440001"
         width="364.60001"
         height="364.60001"
         id="rect5875" />
    </clipPath>
    <clipPath
       id="clipPath5881">
      <rect
         x="467.42001"
         y="25.440001"
         width="364.60001"
         height="364.60001"
         id="rect5879" />
    </clipPath>
    <clipPath
       id="clipPath5885">
      <rect
         x="467.42001"
         y="25.440001"
         width="364.60001"
         height="364.60001"
         id="rect5883" />
    </clipPath>
    <clipPath
       id="clipPath5889">
      <rect
         x="467.42001"
         y="25.440001"
         width="364.60001"
         height="364.60001"
         id="rect5887" />
    </clipPath>
    <clipPath
       id="clipPath5893">
      <rect
         x="467.42001"
         y="25.440001"
         width="364.60001"
         height="364.60001"
         id="rect5891" />
    </clipPath>
    <clipPath
       id="clipPath5897">
      <rect
         x="467.42001"
         y="25.440001"
         width="364.60001"
         height="364.60001"
         id="rect5895" />
    </clipPath>
    <clipPath
       id="clipPath5901">
      <rect
         x="467.42001"
         y="25.440001"
         width="364.60001"
         height="364.60001"
         id="rect5899" />
    </clipPath>
    <clipPath
       id="clipPath5905">
      <rect
         x="467.42001"
         y="25.440001"
         width="364.60001"
         height="364.60001"
         id="rect5903" />
    </clipPath>
    <path
       id="DejaVuSans-35"
       d="M 691,4666 H 3169 V 4134 H 1269 V 2991 q 137,47 274,70 138,23 276,23 781,0 1237,-428 457,-428 457,-1159 Q 3513,744 3044,326 2575,-91 1722,-91 1428,-91 1123,-41 819,9 494,109 v 635 q 281,-153 581,-228 300,-75 634,-75 541,0 856,284 316,284 316,772 0,487 -316,771 -315,285 -856,285 -253,0 -505,-56 -251,-56 -513,-175 z"
       transform="scale(0.015625)" />
    <path
       id="DejaVuSans-78"
       d="M 3513,3500 2247,1797 3578,0 H 2900 L 1881,1375 863,0 H 184 L 1544,1831 300,3500 h 678 l 928,-1247 928,1247 z"
       transform="scale(0.015625)" />
    <path
       id="DejaVuSans-79"
       d="m 2059,-325 q -243,-625 -475,-815 -231,-191 -618,-191 H 506 v 481 h 338 q 237,0 368,113 132,112 291,531 L 1606,56 191,3500 H 800 L 1894,763 2988,3500 h 609 z"
       transform="scale(0.015625)" />
    <path
       id="DejaVuSans-36"
       d="m 2113,2584 q -425,0 -674,-291 -248,-290 -248,-796 0,-503 248,-796 249,-292 674,-292 425,0 673,292 248,293 248,796 0,506 -248,796 -248,291 -673,291 z m 1253,1979 v -575 q -238,112 -480,171 -242,60 -480,60 -625,0 -955,-422 -329,-422 -376,-1275 184,272 462,417 279,145 613,145 703,0 1111,-427 408,-426 408,-1160 0,-719 -425,-1154 -425,-434 -1131,-434 -810,0 -1238,620 -428,621 -428,1799 0,1106 525,1764 525,658 1409,658 238,0 480,-47 242,-47 505,-140 z"
       transform="scale(0.015625)" />
    <path
       id="DejaVuSans-38"
       d="m 2034,2216 q -450,0 -708,-241 -257,-241 -257,-662 0,-422 257,-663 258,-241 708,-241 450,0 709,242 260,243 260,662 0,421 -258,662 -257,241 -711,241 z m -631,268 q -406,100 -633,378 -226,279 -226,679 0,559 398,884 399,325 1092,325 697,0 1094,-325 397,-325 397,-884 0,-400 -227,-679 -226,-278 -629,-378 456,-106 710,-416 255,-309 255,-755 Q 3634,634 3220,271 2806,-91 2034,-91 1263,-91 848,271 434,634 434,1313 q 0,446 256,755 257,310 713,416 z m -231,997 q 0,-362 226,-565 227,-203 636,-203 407,0 636,203 230,203 230,565 0,363 -230,566 -229,203 -636,203 -409,0 -636,-203 -226,-203 -226,-566 z"
       transform="scale(0.015625)" />
    <path
       id="DejaVuSans-39"
       d="m 703,97 v 575 q 238,-113 481,-172 244,-59 479,-59 625,0 954,420 330,420 377,1277 -181,-269 -460,-413 -278,-144 -615,-144 -700,0 -1108,423 -408,424 -408,1159 0,718 425,1152 425,435 1131,435 810,0 1236,-621 427,-620 427,-1801 Q 3622,1225 3098,567 2575,-91 1691,-91 1453,-91 1209,-44 966,3 703,97 Z m 1256,1978 q 425,0 673,290 249,291 249,798 0,503 -249,795 -248,292 -673,292 -425,0 -673,-292 -248,-292 -248,-795 0,-507 248,-798 248,-290 673,-290 z"
       transform="scale(0.015625)" />
    <path
       id="DejaVuSans-41"
       d="M 2188,4044 1331,1722 h 1716 z m -357,622 h 716 L 4325,0 H 3669 L 3244,1197 H 1141 L 716,0 H 50 Z"
       transform="scale(0.015625)" />
    <path
       id="DejaVuSans-6e"
       d="M 3513,2113 V 0 h -575 v 2094 q 0,497 -194,743 -194,247 -581,247 -466,0 -735,-297 -269,-296 -269,-809 V 0 H 581 v 3500 h 578 v -544 q 207,316 486,472 280,156 646,156 603,0 912,-373 310,-373 310,-1098 z"
       transform="scale(0.015625)" />
    <path
       id="DejaVuSans-74"
       d="M 1172,4494 V 3500 H 2356 V 3053 H 1172 V 1153 q 0,-428 117,-550 117,-122 477,-122 h 590 V 0 H 1766 Q 1100,0 847,248 594,497 594,1153 V 3053 H 172 v 447 h 422 v 994 z"
       transform="scale(0.015625)" />
    <path
       id="DejaVuSans-4c"
       d="m 628,4666 h 631 V 531 H 3531 V 0 H 628 Z"
       transform="scale(0.015625)" />
    <path
       id="DejaVuSans-69"
       d="m 603,3500 h 575 V 0 H 603 Z m 0,1363 h 575 V 4134 H 603 Z"
       transform="scale(0.015625)" />
    <path
       id="DejaVuSans-73"
       d="m 2834,3397 v -544 q -243,125 -506,187 -262,63 -544,63 -428,0 -642,-131 -214,-131 -214,-394 0,-200 153,-314 153,-114 616,-217 l 197,-44 q 612,-131 870,-370 258,-239 258,-667 0,-488 -386,-773 Q 2250,-91 1575,-91 1294,-91 989,-36 684,19 347,128 v 594 q 319,-166 628,-249 309,-82 613,-82 406,0 624,139 219,139 219,392 0,234 -158,359 -157,125 -692,241 l -200,47 q -534,112 -772,345 -237,233 -237,639 0,494 350,762 350,269 994,269 318,0 599,-47 282,-46 519,-140 z"
       transform="scale(0.015625)" />
    <path
       id="DejaVuSans-70"
       d="M 1159,525 V -1331 H 581 v 4831 h 578 v -531 q 182,312 458,463 277,152 661,152 638,0 1036,-506 399,-506 399,-1331 0,-825 -399,-1332 -398,-506 -1036,-506 -384,0 -661,152 -276,152 -458,464 z m 1957,1222 q 0,634 -261,995 -261,361 -717,361 -457,0 -718,-361 -261,-361 -261,-995 0,-634 261,-995 261,-361 718,-361 456,0 717,361 261,361 261,995 z"
       transform="scale(0.015625)" />
    <path
       id="DejaVuSans-6c"
       d="m 603,4863 h 575 V 0 H 603 Z"
       transform="scale(0.015625)" />
  </defs>
  <g
     inkscape:groupmode="layer"
     id="layer2"
     inkscape:label="Stars">
    <g
       id="g19497">
      <path
         sodipodi:type="star"
         style="fill:#000000;stroke-width:0.175;stroke-linecap:round;stroke-linejoin:round"
         id="path17857-3"
         inkscape:flatsided="false"
         sodipodi:sides="5"
         sodipodi:cx="37.613857"
         sodipodi:cy="26.763706"
         sodipodi:r1="6.0278621"
         sodipodi:r2="2.4111447"
         sodipodi:arg1="0.92729522"
         sodipodi:arg2="1.5556138"
         inkscape:rounded="0.15"
         inkscape:randomized="0"
         d="m 41.230575,31.585996 c -0.51798,0.388485 -2.932712,-2.421253 -3.580112,-2.411423 -0.6474,0.0098 -2.975713,2.891585 -3.505249,2.519005 -0.529535,-0.37258 1.396491,-3.537382 1.187084,-4.150059 -0.209406,-0.612676 -3.669606,-1.936522 -3.478897,-2.555274 0.190709,-0.618752 3.79579,0.23503 4.31377,-0.153455 0.517979,-0.388484 0.707771,-4.088421 1.355171,-4.098251 0.6474,-0.0098 0.949437,3.682639 1.478972,4.055219 0.529536,0.372579 4.107034,-0.590261 4.31644,0.02241 0.209407,0.612677 -3.209005,2.040966 -3.399714,2.659718 -0.190709,0.618751 1.830514,3.72362 1.312535,4.112105 z"
         transform="translate(58.979159,39.363055)" />
      <path
         sodipodi:type="star"
         style="fill:#000000;stroke-width:0.175;stroke-linecap:round;stroke-linejoin:round"
         id="path17857-56"
         inkscape:flatsided="false"
         sodipodi:sides="5"
         sodipodi:cx="37.613857"
         sodipodi:cy="26.763706"
         sodipodi:r1="6.0278621"
         sodipodi:r2="2.4111447"
         sodipodi:arg1="0.92729522"
         sodipodi:arg2="1.5556138"
         inkscape:rounded="0.15"
         inkscape:randomized="0"
         d="m 41.230575,31.585996 c -0.51798,0.388485 -2.932712,-2.421253 -3.580112,-2.411423 -0.6474,0.0098 -2.975713,2.891585 -3.505249,2.519005 -0.529535,-0.37258 1.396491,-3.537382 1.187084,-4.150059 -0.209406,-0.612676 -3.669606,-1.936522 -3.478897,-2.555274 0.190709,-0.618752 3.79579,0.23503 4.31377,-0.153455 0.517979,-0.388484 0.707771,-4.088421 1.355171,-4.098251 0.6474,-0.0098 0.949437,3.682639 1.478972,4.055219 0.529536,0.372579 4.107034,-0.590261 4.31644,0.02241 0.209407,0.612677 -3.209005,2.040966 -3.399714,2.659718 -0.190709,0.618751 1.830514,3.72362 1.312535,4.112105 z"
         transform="translate(53.211909,62.339959)" />
      <path
         sodipodi:type="star"
         style="fill:#000000;stroke-width:0.175;stroke-linecap:round;stroke-linejoin:round"
         id="path17857-2"
         inkscape:flatsided="false"
         sodipodi:sides="5"
         sodipodi:cx="37.613857"
         sodipodi:cy="26.763706"
         sodipodi:r1="6.0278621"
         sodipodi:r2="2.4111447"
         sodipodi:arg1="0.92729522"
         sodipodi:arg2="1.5556138"
         inkscape:rounded="0.15"
         inkscape:randomized="0"
         d="m 41.230575,31.585996 c -0.51798,0.388485 -2.932712,-2.421253 -3.580112,-2.411423 -0.6474,0.0098 -2.975713,2.891585 -3.505249,2.519005 -0.529535,-0.37258 1.396491,-3.537382 1.187084,-4.150059 -0.209406,-0.612676 -3.669606,-1.936522 -3.478897,-2.555274 0.190709,-0.618752 3.79579,0.23503 4.31377,-0.153455 0.517979,-0.388484 0.707771,-4.088421 1.355171,-4.098251 0.6474,-0.0098 0.949437,3.682639 1.478972,4.055219 0.529536,0.372579 4.107034,-0.590261 4.31644,0.02241 0.209407,0.612677 -3.209005,2.040966 -3.399714,2.659718 -0.190709,0.618751 1.830514,3.72362 1.312535,4.112105 z"
         transform="translate(68.857651,80.617714)" />
      <path
         sodipodi:type="star"
         style="fill:#000000;stroke-width:0.175;stroke-linecap:round;stroke-linejoin:round"
         id="path17857-9"
         inkscape:flatsided="false"
         sodipodi:sides="5"
         sodipodi:cx="37.613857"
         sodipodi:cy="26.763706"
         sodipodi:r1="6.0278621"
         sodipodi:r2="2.4111447"
         sodipodi:arg1="0.92729522"
         sodipodi:arg2="1.5556138"
         inkscape:rounded="0.15"
         inkscape:randomized="0"
         d="m 41.230575,31.585996 c -0.51798,0.388485 -2.932712,-2.421253 -3.580112,-2.411423 -0.6474,0.0098 -2.975713,2.891585 -3.505249,2.519005 -0.529535,-0.37258 1.396491,-3.537382 1.187084,-4.150059 -0.209406,-0.612676 -3.669606,-1.936522 -3.478897,-2.555274 0.190709,-0.618752 3.79579,0.23503 4.31377,-0.153455 0.517979,-0.388484 0.707771,-4.088421 1.355171,-4.098251 0.6474,-0.0098 0.949437,3.682639 1.478972,4.055219 0.529536,0.372579 4.107034,-0.590261 4.31644,0.02241 0.209407,0.612677 -3.209005,2.040966 -3.399714,2.659718 -0.190709,0.618751 1.830514,3.72362 1.312535,4.112105 z"
         transform="translate(130.63402,60.591304)" />
      <path
         sodipodi:type="star"
         style="fill:#000000;stroke-width:0.175;stroke-linecap:round;stroke-linejoin:round"
         id="path17857-1"
         inkscape:flatsided="false"
         sodipodi:sides="5"
         sodipodi:cx="37.613857"
         sodipodi:cy="26.763706"
         sodipodi:r1="6.0278621"
         sodipodi:r2="2.4111447"
         sodipodi:arg1="0.92729522"
         sodipodi:arg2="1.5556138"
         inkscape:rounded="0.15"
         inkscape:randomized="0"
         d="m 41.230575,31.585996 c -0.51798,0.388485 -2.932712,-2.421253 -3.580112,-2.411423 -0.6474,0.0098 -2.975713,2.891585 -3.505249,2.519005 -0.529535,-0.37258 1.396491,-3.537382 1.187084,-4.150059 -0.209406,-0.612676 -3.669606,-1.936522 -3.478897,-2.555274 0.190709,-0.618752 3.79579,0.23503 4.31377,-0.153455 0.517979,-0.388484 0.707771,-4.088421 1.355171,-4.098251 0.6474,-0.0098 0.949437,3.682639 1.478972,4.055219 0.529536,0.372579 4.107034,-0.590261 4.31644,0.02241 0.209407,0.612677 -3.209005,2.040966 -3.399714,2.659718 -0.190709,0.618751 1.830514,3.72362 1.312535,4.112105 z"
         transform="translate(120.11423,53.543044)" />
      <path
         sodipodi:type="star"
         style="fill:#000000;stroke-width:0.175;stroke-linecap:round;stroke-linejoin:round"
         id="path17857-27"
         inkscape:flatsided="false"
         sodipodi:sides="5"
         sodipodi:cx="37.613857"
         sodipodi:cy="26.763706"
         sodipodi:r1="6.0278621"
         sodipodi:r2="2.4111447"
         sodipodi:arg1="0.92729522"
         sodipodi:arg2="1.5556138"
         inkscape:rounded="0.15"
         inkscape:randomized="0"
         d="m 41.230575,31.585996 c -0.51798,0.388485 -2.932712,-2.421253 -3.580112,-2.411423 -0.6474,0.0098 -2.975713,2.891585 -3.505249,2.519005 -0.529535,-0.37258 1.396491,-3.537382 1.187084,-4.150059 -0.209406,-0.612676 -3.669606,-1.936522 -3.478897,-2.555274 0.190709,-0.618752 3.79579,0.23503 4.31377,-0.153455 0.517979,-0.388484 0.707771,-4.088421 1.355171,-4.098251 0.6474,-0.0098 0.949437,3.682639 1.478972,4.055219 0.529536,0.372579 4.107034,-0.590261 4.31644,0.02241 0.209407,0.612677 -3.209005,2.040966 -3.399714,2.659718 -0.190709,0.618751 1.830514,3.72362 1.312535,4.112105 z"
         transform="translate(100.77835,50.790968)" />
      <path
         sodipodi:type="star"
         style="fill:#000000;stroke-width:0.175;stroke-linecap:round;stroke-linejoin:round"
         id="path17857-0"
         inkscape:flatsided="false"
         sodipodi:sides="5"
         sodipodi:cx="37.613857"
         sodipodi:cy="26.763706"
         sodipodi:r1="6.0278621"
         sodipodi:r2="2.4111447"
         sodipodi:arg1="0.92729522"
         sodipodi:arg2="1.5556138"
         inkscape:rounded="0.15"
         inkscape:randomized="0"
         d="m 41.230575,31.585996 c -0.51798,0.388485 -2.932712,-2.421253 -3.580112,-2.411423 -0.6474,0.0098 -2.975713,2.891585 -3.505249,2.519005 -0.529535,-0.37258 1.396491,-3.537382 1.187084,-4.150059 -0.209406,-0.612676 -3.669606,-1.936522 -3.478897,-2.555274 0.190709,-0.618752 3.79579,0.23503 4.31377,-0.153455 0.517979,-0.388484 0.707771,-4.088421 1.355171,-4.098251 0.6474,-0.0098 0.949437,3.682639 1.478972,4.055219 0.529536,0.372579 4.107034,-0.590261 4.31644,0.02241 0.209407,0.612677 -3.209005,2.040966 -3.399714,2.659718 -0.190709,0.618751 1.830514,3.72362 1.312535,4.112105 z"
         transform="translate(89.539652,54.54623)" />
      <path
         sodipodi:type="star"
         style="fill:#000000;stroke-width:0.175;stroke-linecap:round;stroke-linejoin:round"
         id="path17857-93"
         inkscape:flatsided="false"
         sodipodi:sides="5"
         sodipodi:cx="37.613857"
         sodipodi:cy="26.763706"
         sodipodi:r1="6.0278621"
         sodipodi:r2="2.4111447"
         sodipodi:arg1="0.92729522"
         sodipodi:arg2="1.5556138"
         inkscape:rounded="0.15"
         inkscape:randomized="0"
         d="m 41.230575,31.585996 c -0.51798,0.388485 -2.932712,-2.421253 -3.580112,-2.411423 -0.6474,0.0098 -2.975713,2.891585 -3.505249,2.519005 -0.529535,-0.37258 1.396491,-3.537382 1.187084,-4.150059 -0.209406,-0.612676 -3.669606,-1.936522 -3.478897,-2.555274 0.190709,-0.618752 3.79579,0.23503 4.31377,-0.153455 0.517979,-0.388484 0.707771,-4.088421 1.355171,-4.098251 0.6474,-0.0098 0.949437,3.682639 1.478972,4.055219 0.529536,0.372579 4.107034,-0.590261 4.31644,0.02241 0.209407,0.612677 -3.209005,2.040966 -3.399714,2.659718 -0.190709,0.618751 1.830514,3.72362 1.312535,4.112105 z"
         transform="translate(79.425303,71.388144)" />
      <path
         sodipodi:type="star"
         style="fill:#000000;stroke-width:0.175;stroke-linecap:round;stroke-linejoin:round"
         id="path17857-60"
         inkscape:flatsided="false"
         sodipodi:sides="5"
         sodipodi:cx="37.613857"
         sodipodi:cy="26.763706"
         sodipodi:r1="6.0278621"
         sodipodi:r2="2.4111447"
         sodipodi:arg1="0.92729522"
         sodipodi:arg2="1.5556138"
         inkscape:rounded="0.15"
         inkscape:randomized="0"
         d="m 41.230575,31.585996 c -0.51798,0.388485 -2.932712,-2.421253 -3.580112,-2.411423 -0.6474,0.0098 -2.975713,2.891585 -3.505249,2.519005 -0.529535,-0.37258 1.396491,-3.537382 1.187084,-4.150059 -0.209406,-0.612676 -3.669606,-1.936522 -3.478897,-2.555274 0.190709,-0.618752 3.79579,0.23503 4.31377,-0.153455 0.517979,-0.388484 0.707771,-4.088421 1.355171,-4.098251 0.6474,-0.0098 0.949437,3.682639 1.478972,4.055219 0.529536,0.372579 4.107034,-0.590261 4.31644,0.02241 0.209407,0.612677 -3.209005,2.040966 -3.399714,2.659718 -0.190709,0.618751 1.830514,3.72362 1.312535,4.112105 z"
         transform="translate(91.168737,80.823159)" />
      <path
         sodipodi:type="star"
         style="fill:#000000;stroke-width:0.175;stroke-linecap:round;stroke-linejoin:round"
         id="path17857-62"
         inkscape:flatsided="false"
         sodipodi:sides="5"
         sodipodi:cx="37.613857"
         sodipodi:cy="26.763706"
         sodipodi:r1="6.0278621"
         sodipodi:r2="2.4111447"
         sodipodi:arg1="0.92729522"
         sodipodi:arg2="1.5556138"
         inkscape:rounded="0.15"
         inkscape:randomized="0"
         d="m 41.230575,31.585996 c -0.51798,0.388485 -2.932712,-2.421253 -3.580112,-2.411423 -0.6474,0.0098 -2.975713,2.891585 -3.505249,2.519005 -0.529535,-0.37258 1.396491,-3.537382 1.187084,-4.150059 -0.209406,-0.612676 -3.669606,-1.936522 -3.478897,-2.555274 0.190709,-0.618752 3.79579,0.23503 4.31377,-0.153455 0.517979,-0.388484 0.707771,-4.088421 1.355171,-4.098251 0.6474,-0.0098 0.949437,3.682639 1.478972,4.055219 0.529536,0.372579 4.107034,-0.590261 4.31644,0.02241 0.209407,0.612677 -3.209005,2.040966 -3.399714,2.659718 -0.190709,0.618751 1.830514,3.72362 1.312535,4.112105 z"
         transform="translate(107.68792,83.69087)" />
      <path
         sodipodi:type="star"
         style="fill:#000000;stroke-width:0.175;stroke-linecap:round;stroke-linejoin:round"
         id="path17857-61"
         inkscape:flatsided="false"
         sodipodi:sides="5"
         sodipodi:cx="37.613857"
         sodipodi:cy="26.763706"
         sodipodi:r1="6.0278621"
         sodipodi:r2="2.4111447"
         sodipodi:arg1="0.92729522"
         sodipodi:arg2="1.5556138"
         inkscape:rounded="0.15"
         inkscape:randomized="0"
         d="m 41.230575,31.585996 c -0.51798,0.388485 -2.932712,-2.421253 -3.580112,-2.411423 -0.6474,0.0098 -2.975713,2.891585 -3.505249,2.519005 -0.529535,-0.37258 1.396491,-3.537382 1.187084,-4.150059 -0.209406,-0.612676 -3.669606,-1.936522 -3.478897,-2.555274 0.190709,-0.618752 3.79579,0.23503 4.31377,-0.153455 0.517979,-0.388484 0.707771,-4.088421 1.355171,-4.098251 0.6474,-0.0098 0.949437,3.682639 1.478972,4.055219 0.529536,0.372579 4.107034,-0.590261 4.31644,0.02241 0.209407,0.612677 -3.209005,2.040966 -3.399714,2.659718 -0.190709,0.618751 1.830514,3.72362 1.312535,4.112105 z"
         transform="translate(117.59785,94.300797)" />
      <path
         sodipodi:type="star"
         style="fill:#000000;stroke-width:0.175;stroke-linecap:round;stroke-linejoin:round"
         id="path17857-8"
         inkscape:flatsided="false"
         sodipodi:sides="5"
         sodipodi:cx="37.613857"
         sodipodi:cy="26.763706"
         sodipodi:r1="6.0278621"
         sodipodi:r2="2.4111447"
         sodipodi:arg1="0.92729522"
         sodipodi:arg2="1.5556138"
         inkscape:rounded="0.15"
         inkscape:randomized="0"
         d="m 41.230575,31.585996 c -0.51798,0.388485 -2.932712,-2.421253 -3.580112,-2.411423 -0.6474,0.0098 -2.975713,2.891585 -3.505249,2.519005 -0.529535,-0.37258 1.396491,-3.537382 1.187084,-4.150059 -0.209406,-0.612676 -3.669606,-1.936522 -3.478897,-2.555274 0.190709,-0.618752 3.79579,0.23503 4.31377,-0.153455 0.517979,-0.388484 0.707771,-4.088421 1.355171,-4.098251 0.6474,-0.0098 0.949437,3.682639 1.478972,4.055219 0.529536,0.372579 4.107034,-0.590261 4.31644,0.02241 0.209407,0.612677 -3.209005,2.040966 -3.399714,2.659718 -0.190709,0.618751 1.830514,3.72362 1.312535,4.112105 z"
         transform="translate(120.9729,110.30235)" />
      <path
         sodipodi:type="star"
         style="fill:#000000;stroke-width:0.175;stroke-linecap:round;stroke-linejoin:round"
         id="path17857-7"
         inkscape:flatsided="false"
         sodipodi:sides="5"
         sodipodi:cx="37.613857"
         sodipodi:cy="26.763706"
         sodipodi:r1="6.0278621"
         sodipodi:r2="2.4111447"
         sodipodi:arg1="0.92729522"
         sodipodi:arg2="1.5556138"
         inkscape:rounded="0.15"
         inkscape:randomized="0"
         d="m 41.230575,31.585996 c -0.51798,0.388485 -2.932712,-2.421253 -3.580112,-2.411423 -0.6474,0.0098 -2.975713,2.891585 -3.505249,2.519005 -0.529535,-0.37258 1.396491,-3.537382 1.187084,-4.150059 -0.209406,-0.612676 -3.669606,-1.936522 -3.478897,-2.555274 0.190709,-0.618752 3.79579,0.23503 4.31377,-0.153455 0.517979,-0.388484 0.707771,-4.088421 1.355171,-4.098251 0.6474,-0.0098 0.949437,3.682639 1.478972,4.055219 0.529536,0.372579 4.107034,-0.590261 4.31644,0.02241 0.209407,0.612677 -3.209005,2.040966 -3.399714,2.659718 -0.190709,0.618751 1.830514,3.72362 1.312535,4.112105 z"
         transform="translate(115.6911,129.46544)" />
      <path
         sodipodi:type="star"
         style="fill:#000000;stroke-width:0.175;stroke-linecap:round;stroke-linejoin:round"
         id="path17857-92"
         inkscape:flatsided="false"
         sodipodi:sides="5"
         sodipodi:cx="37.613857"
         sodipodi:cy="26.763706"
         sodipodi:r1="6.0278621"
         sodipodi:r2="2.4111447"
         sodipodi:arg1="0.92729522"
         sodipodi:arg2="1.5556138"
         inkscape:rounded="0.15"
         inkscape:randomized="0"
         d="m 41.230575,31.585996 c -0.51798,0.388485 -2.932712,-2.421253 -3.580112,-2.411423 -0.6474,0.0098 -2.975713,2.891585 -3.505249,2.519005 -0.529535,-0.37258 1.396491,-3.537382 1.187084,-4.150059 -0.209406,-0.612676 -3.669606,-1.936522 -3.478897,-2.555274 0.190709,-0.618752 3.79579,0.23503 4.31377,-0.153455 0.517979,-0.388484 0.707771,-4.088421 1.355171,-4.098251 0.6474,-0.0098 0.949437,3.682639 1.478972,4.055219 0.529536,0.372579 4.107034,-0.590261 4.31644,0.02241 0.209407,0.612677 -3.209005,2.040966 -3.399714,2.659718 -0.190709,0.618751 1.830514,3.72362 1.312535,4.112105 z"
         transform="translate(48.713179,133.67016)" />
      <path
         sodipodi:type="star"
         style="fill:#000000;stroke-width:0.175;stroke-linecap:round;stroke-linejoin:round"
         id="path17857-02"
         inkscape:flatsided="false"
         sodipodi:sides="5"
         sodipodi:cx="37.613857"
         sodipodi:cy="26.763706"
         sodipodi:r1="6.0278621"
         sodipodi:r2="2.4111447"
         sodipodi:arg1="0.92729522"
         sodipodi:arg2="1.5556138"
         inkscape:rounded="0.15"
         inkscape:randomized="0"
         d="m 41.230575,31.585996 c -0.51798,0.388485 -2.932712,-2.421253 -3.580112,-2.411423 -0.6474,0.0098 -2.975713,2.891585 -3.505249,2.519005 -0.529535,-0.37258 1.396491,-3.537382 1.187084,-4.150059 -0.209406,-0.612676 -3.669606,-1.936522 -3.478897,-2.555274 0.190709,-0.618752 3.79579,0.23503 4.31377,-0.153455 0.517979,-0.388484 0.707771,-4.088421 1.355171,-4.098251 0.6474,-0.0098 0.949437,3.682639 1.478972,4.055219 0.529536,0.372579 4.107034,-0.590261 4.31644,0.02241 0.209407,0.612677 -3.209005,2.040966 -3.399714,2.659718 -0.190709,0.618751 1.830514,3.72362 1.312535,4.112105 z"
         transform="translate(68.176222,132.13147)" />
      <path
         sodipodi:type="star"
         style="fill:#000000;stroke-width:0.175;stroke-linecap:round;stroke-linejoin:round"
         id="path17857-37"
         inkscape:flatsided="false"
         sodipodi:sides="5"
         sodipodi:cx="37.613857"
         sodipodi:cy="26.763706"
         sodipodi:r1="6.0278621"
         sodipodi:r2="2.4111447"
         sodipodi:arg1="0.92729522"
         sodipodi:arg2="1.5556138"
         inkscape:rounded="0.15"
         inkscape:randomized="0"
         d="m 41.230575,31.585996 c -0.51798,0.388485 -2.932712,-2.421253 -3.580112,-2.411423 -0.6474,0.0098 -2.975713,2.891585 -3.505249,2.519005 -0.529535,-0.37258 1.396491,-3.537382 1.187084,-4.150059 -0.209406,-0.612676 -3.669606,-1.936522 -3.478897,-2.555274 0.190709,-0.618752 3.79579,0.23503 4.31377,-0.153455 0.517979,-0.388484 0.707771,-4.088421 1.355171,-4.098251 0.6474,-0.0098 0.949437,3.682639 1.478972,4.055219 0.529536,0.372579 4.107034,-0.590261 4.31644,0.02241 0.209407,0.612677 -3.209005,2.040966 -3.399714,2.659718 -0.190709,0.618751 1.830514,3.72362 1.312535,4.112105 z"
         transform="translate(80.854312,124.62733)" />
      <path
         sodipodi:type="star"
         style="fill:#000000;stroke-width:0.175;stroke-linecap:round;stroke-linejoin:round"
         id="path17857-59"
         inkscape:flatsided="false"
         sodipodi:sides="5"
         sodipodi:cx="37.613857"
         sodipodi:cy="26.763706"
         sodipodi:r1="6.0278621"
         sodipodi:r2="2.4111447"
         sodipodi:arg1="0.92729522"
         sodipodi:arg2="1.5556138"
         inkscape:rounded="0.15"
         inkscape:randomized="0"
         d="m 41.230575,31.585996 c -0.51798,0.388485 -2.932712,-2.421253 -3.580112,-2.411423 -0.6474,0.0098 -2.975713,2.891585 -3.505249,2.519005 -0.529535,-0.37258 1.396491,-3.537382 1.187084,-4.150059 -0.209406,-0.612676 -3.669606,-1.936522 -3.478897,-2.555274 0.190709,-0.618752 3.79579,0.23503 4.31377,-0.153455 0.517979,-0.388484 0.707771,-4.088421 1.355171,-4.098251 0.6474,-0.0098 0.949437,3.682639 1.478972,4.055219 0.529536,0.372579 4.107034,-0.590261 4.31644,0.02241 0.209407,0.612677 -3.209005,2.040966 -3.399714,2.659718 -0.190709,0.618751 1.830514,3.72362 1.312535,4.112105 z"
         transform="translate(87.228193,114.94562)" />
      <path
         sodipodi:type="star"
         style="fill:#000000;stroke-width:0.175;stroke-linecap:round;stroke-linejoin:round"
         id="path17857-22"
         inkscape:flatsided="false"
         sodipodi:sides="5"
         sodipodi:cx="37.613857"
         sodipodi:cy="26.763706"
         sodipodi:r1="6.0278621"
         sodipodi:r2="2.4111447"
         sodipodi:arg1="0.92729522"
         sodipodi:arg2="1.5556138"
         inkscape:rounded="0.15"
         inkscape:randomized="0"
         d="m 41.230575,31.585996 c -0.51798,0.388485 -2.932712,-2.421253 -3.580112,-2.411423 -0.6474,0.0098 -2.975713,2.891585 -3.505249,2.519005 -0.529535,-0.37258 1.396491,-3.537382 1.187084,-4.150059 -0.209406,-0.612676 -3.669606,-1.936522 -3.478897,-2.555274 0.190709,-0.618752 3.79579,0.23503 4.31377,-0.153455 0.517979,-0.388484 0.707771,-4.088421 1.355171,-4.098251 0.6474,-0.0098 0.949437,3.682639 1.478972,4.055219 0.529536,0.372579 4.107034,-0.590261 4.31644,0.02241 0.209407,0.612677 -3.209005,2.040966 -3.399714,2.659718 -0.190709,0.618751 1.830514,3.72362 1.312535,4.112105 z"
         transform="translate(85.202041,94.225578)" />
      <path
         sodipodi:type="star"
         style="fill:#000000;stroke-width:0.175;stroke-linecap:round;stroke-linejoin:round"
         id="path17857-89"
         inkscape:flatsided="false"
         sodipodi:sides="5"
         sodipodi:cx="37.613857"
         sodipodi:cy="26.763706"
         sodipodi:r1="6.0278621"
         sodipodi:r2="2.4111447"
         sodipodi:arg1="0.92729522"
         sodipodi:arg2="1.5556138"
         inkscape:rounded="0.15"
         inkscape:randomized="0"
         d="m 41.230575,31.585996 c -0.51798,0.388485 -2.932712,-2.421253 -3.580112,-2.411423 -0.6474,0.0098 -2.975713,2.891585 -3.505249,2.519005 -0.529535,-0.37258 1.396491,-3.537382 1.187084,-4.150059 -0.209406,-0.612676 -3.669606,-1.936522 -3.478897,-2.555274 0.190709,-0.618752 3.79579,0.23503 4.31377,-0.153455 0.517979,-0.388484 0.707771,-4.088421 1.355171,-4.098251 0.6474,-0.0098 0.949437,3.682639 1.478972,4.055219 0.529536,0.372579 4.107034,-0.590261 4.31644,0.02241 0.209407,0.612677 -3.209005,2.040966 -3.399714,2.659718 -0.190709,0.618751 1.830514,3.72362 1.312535,4.112105 z"
         transform="translate(70.191777,94.32557)" />
      <path
         sodipodi:type="star"
         style="fill:#000000;stroke-width:0.175;stroke-linecap:round;stroke-linejoin:round"
         id="path17857-73"
         inkscape:flatsided="false"
         sodipodi:sides="5"
         sodipodi:cx="37.613857"
         sodipodi:cy="26.763706"
         sodipodi:r1="6.0278621"
         sodipodi:r2="2.4111447"
         sodipodi:arg1="0.92729522"
         sodipodi:arg2="1.5556138"
         inkscape:rounded="0.15"
         inkscape:randomized="0"
         d="m 41.230575,31.585996 c -0.51798,0.388485 -2.932712,-2.421253 -3.580112,-2.411423 -0.6474,0.0098 -2.975713,2.891585 -3.505249,2.519005 -0.529535,-0.37258 1.396491,-3.537382 1.187084,-4.150059 -0.209406,-0.612676 -3.669606,-1.936522 -3.478897,-2.555274 0.190709,-0.618752 3.79579,0.23503 4.31377,-0.153455 0.517979,-0.388484 0.707771,-4.088421 1.355171,-4.098251 0.6474,-0.0098 0.949437,3.682639 1.478972,4.055219 0.529536,0.372579 4.107034,-0.590261 4.31644,0.02241 0.209407,0.612677 -3.209005,2.040966 -3.399714,2.659718 -0.190709,0.618751 1.830514,3.72362 1.312535,4.112105 z"
         transform="translate(55.181513,102.29119)" />
      <path
         sodipodi:type="star"
         style="fill:#000000;stroke-width:0.175;stroke-linecap:round;stroke-linejoin:round"
         id="path17857-612"
         inkscape:flatsided="false"
         sodipodi:sides="5"
         sodipodi:cx="37.613857"
         sodipodi:cy="26.763706"
         sodipodi:r1="6.0278621"
         sodipodi:r2="2.4111447"
         sodipodi:arg1="0.92729522"
         sodipodi:arg2="1.5556138"
         inkscape:rounded="0.15"
         inkscape:randomized="0"
         d="m 41.230575,31.585996 c -0.51798,0.388485 -2.932712,-2.421253 -3.580112,-2.411423 -0.6474,0.0098 -2.975713,2.891585 -3.505249,2.519005 -0.529535,-0.37258 1.396491,-3.537382 1.187084,-4.150059 -0.209406,-0.612676 -3.669606,-1.936522 -3.478897,-2.555274 0.190709,-0.618752 3.79579,0.23503 4.31377,-0.153455 0.517979,-0.388484 0.707771,-4.088421 1.355171,-4.098251 0.6474,-0.0098 0.949437,3.682639 1.478972,4.055219 0.529536,0.372579 4.107034,-0.590261 4.31644,0.02241 0.209407,0.612677 -3.209005,2.040966 -3.399714,2.659718 -0.190709,0.618751 1.830514,3.72362 1.312535,4.112105 z"
         transform="translate(40.664637,98.640796)" />
      <path
         sodipodi:type="star"
         style="fill:#000000;stroke-width:0.175;stroke-linecap:round;stroke-linejoin:round"
         id="path17857-931"
         inkscape:flatsided="false"
         sodipodi:sides="5"
         sodipodi:cx="37.613857"
         sodipodi:cy="26.763706"
         sodipodi:r1="6.0278621"
         sodipodi:r2="2.4111447"
         sodipodi:arg1="0.92729522"
         sodipodi:arg2="1.5556138"
         inkscape:rounded="0.15"
         inkscape:randomized="0"
         d="m 41.230575,31.585996 c -0.51798,0.388485 -2.932712,-2.421253 -3.580112,-2.411423 -0.6474,0.0098 -2.975713,2.891585 -3.505249,2.519005 -0.529535,-0.37258 1.396491,-3.537382 1.187084,-4.150059 -0.209406,-0.612676 -3.669606,-1.936522 -3.478897,-2.555274 0.190709,-0.618752 3.79579,0.23503 4.31377,-0.153455 0.517979,-0.388484 0.707771,-4.088421 1.355171,-4.098251 0.6474,-0.0098 0.949437,3.682639 1.478972,4.055219 0.529536,0.372579 4.107034,-0.590261 4.31644,0.02241 0.209407,0.612677 -3.209005,2.040966 -3.399714,2.659718 -0.190709,0.618751 1.830514,3.72362 1.312535,4.112105 z"
         transform="translate(26.535454,83.600437)" />
      <path
         sodipodi:type="star"
         style="fill:#000000;stroke-width:0.175;stroke-linecap:round;stroke-linejoin:round"
         id="path17857-94"
         inkscape:flatsided="false"
         sodipodi:sides="5"
         sodipodi:cx="37.613857"
         sodipodi:cy="26.763706"
         sodipodi:r1="6.0278621"
         sodipodi:r2="2.4111447"
         sodipodi:arg1="0.92729522"
         sodipodi:arg2="1.5556138"
         inkscape:rounded="0.15"
         inkscape:randomized="0"
         d="m 41.230575,31.585996 c -0.51798,0.388485 -2.932712,-2.421253 -3.580112,-2.411423 -0.6474,0.0098 -2.975713,2.891585 -3.505249,2.519005 -0.529535,-0.37258 1.396491,-3.537382 1.187084,-4.150059 -0.209406,-0.612676 -3.669606,-1.936522 -3.478897,-2.555274 0.190709,-0.618752 3.79579,0.23503 4.31377,-0.153455 0.517979,-0.388484 0.707771,-4.088421 1.355171,-4.098251 0.6474,-0.0098 0.949437,3.682639 1.478972,4.055219 0.529536,0.372579 4.107034,-0.590261 4.31644,0.02241 0.209407,0.612677 -3.209005,2.040966 -3.399714,2.659718 -0.190709,0.618751 1.830514,3.72362 1.312535,4.112105 z"
         transform="translate(23.036727,74.074257)" />
      <path
         sodipodi:type="star"
         style="fill:#000000;stroke-width:0.175;stroke-linecap:round;stroke-linejoin:round"
         id="path17857-6"
         inkscape:flatsided="false"
         sodipodi:sides="5"
         sodipodi:cx="37.613857"
         sodipodi:cy="26.763706"
         sodipodi:r1="6.0278621"
         sodipodi:r2="2.4111447"
         sodipodi:arg1="0.92729522"
         sodipodi:arg2="1.5556138"
         inkscape:rounded="0.15"
         inkscape:randomized="0"
         d="m 41.230575,31.585996 c -0.51798,0.388485 -2.932712,-2.421253 -3.580112,-2.411423 -0.6474,0.0098 -2.975713,2.891585 -3.505249,2.519005 -0.529535,-0.37258 1.396491,-3.537382 1.187084,-4.150059 -0.209406,-0.612676 -3.669606,-1.936522 -3.478897,-2.555274 0.190709,-0.618752 3.79579,0.23503 4.31377,-0.153455 0.517979,-0.388484 0.707771,-4.088421 1.355171,-4.098251 0.6474,-0.0098 0.949437,3.682639 1.478972,4.055219 0.529536,0.372579 4.107034,-0.590261 4.31644,0.02241 0.209407,0.612677 -3.209005,2.040966 -3.399714,2.659718 -0.190709,0.618751 1.830514,3.72362 1.312535,4.112105 z"
         transform="translate(73.332115,26.905635)" />
    </g>
    <g
       id="g19547">
      <path
         sodipodi:type="star"
         style="fill:#000000;stroke-width:0.175;stroke-linecap:round;stroke-linejoin:round"
         id="path19499"
         inkscape:flatsided="false"
         sodipodi:sides="5"
         sodipodi:cx="37.613857"
         sodipodi:cy="26.763706"
         sodipodi:r1="6.0278621"
         sodipodi:r2="2.4111447"
         sodipodi:arg1="0.92729522"
         sodipodi:arg2="1.5556138"
         inkscape:rounded="0.15"
         inkscape:randomized="0"
         d="m 41.230575,31.585996 c -0.51798,0.388485 -2.932712,-2.421253 -3.580112,-2.411423 -0.6474,0.0098 -2.975713,2.891585 -3.505249,2.519005 -0.529535,-0.37258 1.396491,-3.537382 1.187084,-4.150059 -0.209406,-0.612676 -3.669606,-1.936522 -3.478897,-2.555274 0.190709,-0.618752 3.79579,0.23503 4.31377,-0.153455 0.517979,-0.388484 0.707771,-4.088421 1.355171,-4.098251 0.6474,-0.0098 0.949437,3.682639 1.478972,4.055219 0.529536,0.372579 4.107034,-0.590261 4.31644,0.02241 0.209407,0.612677 -3.209005,2.040966 -3.399714,2.659718 -0.190709,0.618751 1.830514,3.72362 1.312535,4.112105 z"
         transform="translate(58.979159,39.363055)" />
      <path
         sodipodi:type="star"
         style="fill:#000000;stroke-width:0.175;stroke-linecap:round;stroke-linejoin:round"
         id="path19501"
         inkscape:flatsided="false"
         sodipodi:sides="5"
         sodipodi:cx="37.613857"
         sodipodi:cy="26.763706"
         sodipodi:r1="6.0278621"
         sodipodi:r2="2.4111447"
         sodipodi:arg1="0.92729522"
         sodipodi:arg2="1.5556138"
         inkscape:rounded="0.15"
         inkscape:randomized="0"
         d="m 41.230575,31.585996 c -0.51798,0.388485 -2.932712,-2.421253 -3.580112,-2.411423 -0.6474,0.0098 -2.975713,2.891585 -3.505249,2.519005 -0.529535,-0.37258 1.396491,-3.537382 1.187084,-4.150059 -0.209406,-0.612676 -3.669606,-1.936522 -3.478897,-2.555274 0.190709,-0.618752 3.79579,0.23503 4.31377,-0.153455 0.517979,-0.388484 0.707771,-4.088421 1.355171,-4.098251 0.6474,-0.0098 0.949437,3.682639 1.478972,4.055219 0.529536,0.372579 4.107034,-0.590261 4.31644,0.02241 0.209407,0.612677 -3.209005,2.040966 -3.399714,2.659718 -0.190709,0.618751 1.830514,3.72362 1.312535,4.112105 z"
         transform="translate(53.211909,62.339959)" />
      <path
         sodipodi:type="star"
         style="fill:#000000;stroke-width:0.175;stroke-linecap:round;stroke-linejoin:round"
         id="path19503"
         inkscape:flatsided="false"
         sodipodi:sides="5"
         sodipodi:cx="37.613857"
         sodipodi:cy="26.763706"
         sodipodi:r1="6.0278621"
         sodipodi:r2="2.4111447"
         sodipodi:arg1="0.92729522"
         sodipodi:arg2="1.5556138"
         inkscape:rounded="0.15"
         inkscape:randomized="0"
         d="m 41.230575,31.585996 c -0.51798,0.388485 -2.932712,-2.421253 -3.580112,-2.411423 -0.6474,0.0098 -2.975713,2.891585 -3.505249,2.519005 -0.529535,-0.37258 1.396491,-3.537382 1.187084,-4.150059 -0.209406,-0.612676 -3.669606,-1.936522 -3.478897,-2.555274 0.190709,-0.618752 3.79579,0.23503 4.31377,-0.153455 0.517979,-0.388484 0.707771,-4.088421 1.355171,-4.098251 0.6474,-0.0098 0.949437,3.682639 1.478972,4.055219 0.529536,0.372579 4.107034,-0.590261 4.31644,0.02241 0.209407,0.612677 -3.209005,2.040966 -3.399714,2.659718 -0.190709,0.618751 1.830514,3.72362 1.312535,4.112105 z"
         transform="translate(68.857651,80.617714)" />
      <path
         sodipodi:type="star"
         style="fill:#000000;stroke-width:0.175;stroke-linecap:round;stroke-linejoin:round"
         id="path19505"
         inkscape:flatsided="false"
         sodipodi:sides="5"
         sodipodi:cx="37.613857"
         sodipodi:cy="26.763706"
         sodipodi:r1="6.0278621"
         sodipodi:r2="2.4111447"
         sodipodi:arg1="0.92729522"
         sodipodi:arg2="1.5556138"
         inkscape:rounded="0.15"
         inkscape:randomized="0"
         d="m 41.230575,31.585996 c -0.51798,0.388485 -2.932712,-2.421253 -3.580112,-2.411423 -0.6474,0.0098 -2.975713,2.891585 -3.505249,2.519005 -0.529535,-0.37258 1.396491,-3.537382 1.187084,-4.150059 -0.209406,-0.612676 -3.669606,-1.936522 -3.478897,-2.555274 0.190709,-0.618752 3.79579,0.23503 4.31377,-0.153455 0.517979,-0.388484 0.707771,-4.088421 1.355171,-4.098251 0.6474,-0.0098 0.949437,3.682639 1.478972,4.055219 0.529536,0.372579 4.107034,-0.590261 4.31644,0.02241 0.209407,0.612677 -3.209005,2.040966 -3.399714,2.659718 -0.190709,0.618751 1.830514,3.72362 1.312535,4.112105 z"
         transform="translate(130.63402,60.591304)" />
      <path
         sodipodi:type="star"
         style="fill:#000000;stroke-width:0.175;stroke-linecap:round;stroke-linejoin:round"
         id="path19507"
         inkscape:flatsided="false"
         sodipodi:sides="5"
         sodipodi:cx="37.613857"
         sodipodi:cy="26.763706"
         sodipodi:r1="6.0278621"
         sodipodi:r2="2.4111447"
         sodipodi:arg1="0.92729522"
         sodipodi:arg2="1.5556138"
         inkscape:rounded="0.15"
         inkscape:randomized="0"
         d="m 41.230575,31.585996 c -0.51798,0.388485 -2.932712,-2.421253 -3.580112,-2.411423 -0.6474,0.0098 -2.975713,2.891585 -3.505249,2.519005 -0.529535,-0.37258 1.396491,-3.537382 1.187084,-4.150059 -0.209406,-0.612676 -3.669606,-1.936522 -3.478897,-2.555274 0.190709,-0.618752 3.79579,0.23503 4.31377,-0.153455 0.517979,-0.388484 0.707771,-4.088421 1.355171,-4.098251 0.6474,-0.0098 0.949437,3.682639 1.478972,4.055219 0.529536,0.372579 4.107034,-0.590261 4.31644,0.02241 0.209407,0.612677 -3.209005,2.040966 -3.399714,2.659718 -0.190709,0.618751 1.830514,3.72362 1.312535,4.112105 z"
         transform="translate(120.11423,53.543044)" />
      <path
         sodipodi:type="star"
         style="fill:#000000;stroke-width:0.175;stroke-linecap:round;stroke-linejoin:round"
         id="path19509"
         inkscape:flatsided="false"
         sodipodi:sides="5"
         sodipodi:cx="37.613857"
         sodipodi:cy="26.763706"
         sodipodi:r1="6.0278621"
         sodipodi:r2="2.4111447"
         sodipodi:arg1="0.92729522"
         sodipodi:arg2="1.5556138"
         inkscape:rounded="0.15"
         inkscape:randomized="0"
         d="m 41.230575,31.585996 c -0.51798,0.388485 -2.932712,-2.421253 -3.580112,-2.411423 -0.6474,0.0098 -2.975713,2.891585 -3.505249,2.519005 -0.529535,-0.37258 1.396491,-3.537382 1.187084,-4.150059 -0.209406,-0.612676 -3.669606,-1.936522 -3.478897,-2.555274 0.190709,-0.618752 3.79579,0.23503 4.31377,-0.153455 0.517979,-0.388484 0.707771,-4.088421 1.355171,-4.098251 0.6474,-0.0098 0.949437,3.682639 1.478972,4.055219 0.529536,0.372579 4.107034,-0.590261 4.31644,0.02241 0.209407,0.612677 -3.209005,2.040966 -3.399714,2.659718 -0.190709,0.618751 1.830514,3.72362 1.312535,4.112105 z"
         transform="translate(100.77835,50.790968)" />
      <path
         sodipodi:type="star"
         style="fill:#000000;stroke-width:0.175;stroke-linecap:round;stroke-linejoin:round"
         id="path19511"
         inkscape:flatsided="false"
         sodipodi:sides="5"
         sodipodi:cx="37.613857"
         sodipodi:cy="26.763706"
         sodipodi:r1="6.0278621"
         sodipodi:r2="2.4111447"
         sodipodi:arg1="0.92729522"
         sodipodi:arg2="1.5556138"
         inkscape:rounded="0.15"
         inkscape:randomized="0"
         d="m 41.230575,31.585996 c -0.51798,0.388485 -2.932712,-2.421253 -3.580112,-2.411423 -0.6474,0.0098 -2.975713,2.891585 -3.505249,2.519005 -0.529535,-0.37258 1.396491,-3.537382 1.187084,-4.150059 -0.209406,-0.612676 -3.669606,-1.936522 -3.478897,-2.555274 0.190709,-0.618752 3.79579,0.23503 4.31377,-0.153455 0.517979,-0.388484 0.707771,-4.088421 1.355171,-4.098251 0.6474,-0.0098 0.949437,3.682639 1.478972,4.055219 0.529536,0.372579 4.107034,-0.590261 4.31644,0.02241 0.209407,0.612677 -3.209005,2.040966 -3.399714,2.659718 -0.190709,0.618751 1.830514,3.72362 1.312535,4.112105 z"
         transform="translate(89.539652,54.54623)" />
      <path
         sodipodi:type="star"
         style="fill:#000000;stroke-width:0.175;stroke-linecap:round;stroke-linejoin:round"
         id="path19513"
         inkscape:flatsided="false"
         sodipodi:sides="5"
         sodipodi:cx="37.613857"
         sodipodi:cy="26.763706"
         sodipodi:r1="6.0278621"
         sodipodi:r2="2.4111447"
         sodipodi:arg1="0.92729522"
         sodipodi:arg2="1.5556138"
         inkscape:rounded="0.15"
         inkscape:randomized="0"
         d="m 41.230575,31.585996 c -0.51798,0.388485 -2.932712,-2.421253 -3.580112,-2.411423 -0.6474,0.0098 -2.975713,2.891585 -3.505249,2.519005 -0.529535,-0.37258 1.396491,-3.537382 1.187084,-4.150059 -0.209406,-0.612676 -3.669606,-1.936522 -3.478897,-2.555274 0.190709,-0.618752 3.79579,0.23503 4.31377,-0.153455 0.517979,-0.388484 0.707771,-4.088421 1.355171,-4.098251 0.6474,-0.0098 0.949437,3.682639 1.478972,4.055219 0.529536,0.372579 4.107034,-0.590261 4.31644,0.02241 0.209407,0.612677 -3.209005,2.040966 -3.399714,2.659718 -0.190709,0.618751 1.830514,3.72362 1.312535,4.112105 z"
         transform="translate(79.425303,71.388144)" />
      <path
         sodipodi:type="star"
         style="fill:#000000;stroke-width:0.175;stroke-linecap:round;stroke-linejoin:round"
         id="path19515"
         inkscape:flatsided="false"
         sodipodi:sides="5"
         sodipodi:cx="37.613857"
         sodipodi:cy="26.763706"
         sodipodi:r1="6.0278621"
         sodipodi:r2="2.4111447"
         sodipodi:arg1="0.92729522"
         sodipodi:arg2="1.5556138"
         inkscape:rounded="0.15"
         inkscape:randomized="0"
         d="m 41.230575,31.585996 c -0.51798,0.388485 -2.932712,-2.421253 -3.580112,-2.411423 -0.6474,0.0098 -2.975713,2.891585 -3.505249,2.519005 -0.529535,-0.37258 1.396491,-3.537382 1.187084,-4.150059 -0.209406,-0.612676 -3.669606,-1.936522 -3.478897,-2.555274 0.190709,-0.618752 3.79579,0.23503 4.31377,-0.153455 0.517979,-0.388484 0.707771,-4.088421 1.355171,-4.098251 0.6474,-0.0098 0.949437,3.682639 1.478972,4.055219 0.529536,0.372579 4.107034,-0.590261 4.31644,0.02241 0.209407,0.612677 -3.209005,2.040966 -3.399714,2.659718 -0.190709,0.618751 1.830514,3.72362 1.312535,4.112105 z"
         transform="translate(91.168737,80.823159)" />
      <path
         sodipodi:type="star"
         style="fill:#000000;stroke-width:0.175;stroke-linecap:round;stroke-linejoin:round"
         id="path19517"
         inkscape:flatsided="false"
         sodipodi:sides="5"
         sodipodi:cx="37.613857"
         sodipodi:cy="26.763706"
         sodipodi:r1="6.0278621"
         sodipodi:r2="2.4111447"
         sodipodi:arg1="0.92729522"
         sodipodi:arg2="1.5556138"
         inkscape:rounded="0.15"
         inkscape:randomized="0"
         d="m 41.230575,31.585996 c -0.51798,0.388485 -2.932712,-2.421253 -3.580112,-2.411423 -0.6474,0.0098 -2.975713,2.891585 -3.505249,2.519005 -0.529535,-0.37258 1.396491,-3.537382 1.187084,-4.150059 -0.209406,-0.612676 -3.669606,-1.936522 -3.478897,-2.555274 0.190709,-0.618752 3.79579,0.23503 4.31377,-0.153455 0.517979,-0.388484 0.707771,-4.088421 1.355171,-4.098251 0.6474,-0.0098 0.949437,3.682639 1.478972,4.055219 0.529536,0.372579 4.107034,-0.590261 4.31644,0.02241 0.209407,0.612677 -3.209005,2.040966 -3.399714,2.659718 -0.190709,0.618751 1.830514,3.72362 1.312535,4.112105 z"
         transform="translate(107.68792,83.69087)" />
      <path
         sodipodi:type="star"
         style="fill:#000000;stroke-width:0.175;stroke-linecap:round;stroke-linejoin:round"
         id="path19519"
         inkscape:flatsided="false"
         sodipodi:sides="5"
         sodipodi:cx="37.613857"
         sodipodi:cy="26.763706"
         sodipodi:r1="6.0278621"
         sodipodi:r2="2.4111447"
         sodipodi:arg1="0.92729522"
         sodipodi:arg2="1.5556138"
         inkscape:rounded="0.15"
         inkscape:randomized="0"
         d="m 41.230575,31.585996 c -0.51798,0.388485 -2.932712,-2.421253 -3.580112,-2.411423 -0.6474,0.0098 -2.975713,2.891585 -3.505249,2.519005 -0.529535,-0.37258 1.396491,-3.537382 1.187084,-4.150059 -0.209406,-0.612676 -3.669606,-1.936522 -3.478897,-2.555274 0.190709,-0.618752 3.79579,0.23503 4.31377,-0.153455 0.517979,-0.388484 0.707771,-4.088421 1.355171,-4.098251 0.6474,-0.0098 0.949437,3.682639 1.478972,4.055219 0.529536,0.372579 4.107034,-0.590261 4.31644,0.02241 0.209407,0.612677 -3.209005,2.040966 -3.399714,2.659718 -0.190709,0.618751 1.830514,3.72362 1.312535,4.112105 z"
         transform="translate(117.59785,94.300797)" />
      <path
         sodipodi:type="star"
         style="fill:#000000;stroke-width:0.175;stroke-linecap:round;stroke-linejoin:round"
         id="path19521"
         inkscape:flatsided="false"
         sodipodi:sides="5"
         sodipodi:cx="37.613857"
         sodipodi:cy="26.763706"
         sodipodi:r1="6.0278621"
         sodipodi:r2="2.4111447"
         sodipodi:arg1="0.92729522"
         sodipodi:arg2="1.5556138"
         inkscape:rounded="0.15"
         inkscape:randomized="0"
         d="m 41.230575,31.585996 c -0.51798,0.388485 -2.932712,-2.421253 -3.580112,-2.411423 -0.6474,0.0098 -2.975713,2.891585 -3.505249,2.519005 -0.529535,-0.37258 1.396491,-3.537382 1.187084,-4.150059 -0.209406,-0.612676 -3.669606,-1.936522 -3.478897,-2.555274 0.190709,-0.618752 3.79579,0.23503 4.31377,-0.153455 0.517979,-0.388484 0.707771,-4.088421 1.355171,-4.098251 0.6474,-0.0098 0.949437,3.682639 1.478972,4.055219 0.529536,0.372579 4.107034,-0.590261 4.31644,0.02241 0.209407,0.612677 -3.209005,2.040966 -3.399714,2.659718 -0.190709,0.618751 1.830514,3.72362 1.312535,4.112105 z"
         transform="translate(120.9729,110.30235)" />
      <path
         sodipodi:type="star"
         style="fill:#000000;stroke-width:0.175;stroke-linecap:round;stroke-linejoin:round"
         id="path19523"
         inkscape:flatsided="false"
         sodipodi:sides="5"
         sodipodi:cx="37.613857"
         sodipodi:cy="26.763706"
         sodipodi:r1="6.0278621"
         sodipodi:r2="2.4111447"
         sodipodi:arg1="0.92729522"
         sodipodi:arg2="1.5556138"
         inkscape:rounded="0.15"
         inkscape:randomized="0"
         d="m 41.230575,31.585996 c -0.51798,0.388485 -2.932712,-2.421253 -3.580112,-2.411423 -0.6474,0.0098 -2.975713,2.891585 -3.505249,2.519005 -0.529535,-0.37258 1.396491,-3.537382 1.187084,-4.150059 -0.209406,-0.612676 -3.669606,-1.936522 -3.478897,-2.555274 0.190709,-0.618752 3.79579,0.23503 4.31377,-0.153455 0.517979,-0.388484 0.707771,-4.088421 1.355171,-4.098251 0.6474,-0.0098 0.949437,3.682639 1.478972,4.055219 0.529536,0.372579 4.107034,-0.590261 4.31644,0.02241 0.209407,0.612677 -3.209005,2.040966 -3.399714,2.659718 -0.190709,0.618751 1.830514,3.72362 1.312535,4.112105 z"
         transform="translate(115.6911,129.46544)" />
      <path
         sodipodi:type="star"
         style="fill:#000000;stroke-width:0.175;stroke-linecap:round;stroke-linejoin:round"
         id="path19525"
         inkscape:flatsided="false"
         sodipodi:sides="5"
         sodipodi:cx="37.613857"
         sodipodi:cy="26.763706"
         sodipodi:r1="6.0278621"
         sodipodi:r2="2.4111447"
         sodipodi:arg1="0.92729522"
         sodipodi:arg2="1.5556138"
         inkscape:rounded="0.15"
         inkscape:randomized="0"
         d="m 41.230575,31.585996 c -0.51798,0.388485 -2.932712,-2.421253 -3.580112,-2.411423 -0.6474,0.0098 -2.975713,2.891585 -3.505249,2.519005 -0.529535,-0.37258 1.396491,-3.537382 1.187084,-4.150059 -0.209406,-0.612676 -3.669606,-1.936522 -3.478897,-2.555274 0.190709,-0.618752 3.79579,0.23503 4.31377,-0.153455 0.517979,-0.388484 0.707771,-4.088421 1.355171,-4.098251 0.6474,-0.0098 0.949437,3.682639 1.478972,4.055219 0.529536,0.372579 4.107034,-0.590261 4.31644,0.02241 0.209407,0.612677 -3.209005,2.040966 -3.399714,2.659718 -0.190709,0.618751 1.830514,3.72362 1.312535,4.112105 z"
         transform="translate(48.713179,133.67016)" />
      <path
         sodipodi:type="star"
         style="fill:#000000;stroke-width:0.175;stroke-linecap:round;stroke-linejoin:round"
         id="path19527"
         inkscape:flatsided="false"
         sodipodi:sides="5"
         sodipodi:cx="37.613857"
         sodipodi:cy="26.763706"
         sodipodi:r1="6.0278621"
         sodipodi:r2="2.4111447"
         sodipodi:arg1="0.92729522"
         sodipodi:arg2="1.5556138"
         inkscape:rounded="0.15"
         inkscape:randomized="0"
         d="m 41.230575,31.585996 c -0.51798,0.388485 -2.932712,-2.421253 -3.580112,-2.411423 -0.6474,0.0098 -2.975713,2.891585 -3.505249,2.519005 -0.529535,-0.37258 1.396491,-3.537382 1.187084,-4.150059 -0.209406,-0.612676 -3.669606,-1.936522 -3.478897,-2.555274 0.190709,-0.618752 3.79579,0.23503 4.31377,-0.153455 0.517979,-0.388484 0.707771,-4.088421 1.355171,-4.098251 0.6474,-0.0098 0.949437,3.682639 1.478972,4.055219 0.529536,0.372579 4.107034,-0.590261 4.31644,0.02241 0.209407,0.612677 -3.209005,2.040966 -3.399714,2.659718 -0.190709,0.618751 1.830514,3.72362 1.312535,4.112105 z"
         transform="translate(68.176222,132.13147)" />
      <path
         sodipodi:type="star"
         style="fill:#000000;stroke-width:0.175;stroke-linecap:round;stroke-linejoin:round"
         id="path19529"
         inkscape:flatsided="false"
         sodipodi:sides="5"
         sodipodi:cx="37.613857"
         sodipodi:cy="26.763706"
         sodipodi:r1="6.0278621"
         sodipodi:r2="2.4111447"
         sodipodi:arg1="0.92729522"
         sodipodi:arg2="1.5556138"
         inkscape:rounded="0.15"
         inkscape:randomized="0"
         d="m 41.230575,31.585996 c -0.51798,0.388485 -2.932712,-2.421253 -3.580112,-2.411423 -0.6474,0.0098 -2.975713,2.891585 -3.505249,2.519005 -0.529535,-0.37258 1.396491,-3.537382 1.187084,-4.150059 -0.209406,-0.612676 -3.669606,-1.936522 -3.478897,-2.555274 0.190709,-0.618752 3.79579,0.23503 4.31377,-0.153455 0.517979,-0.388484 0.707771,-4.088421 1.355171,-4.098251 0.6474,-0.0098 0.949437,3.682639 1.478972,4.055219 0.529536,0.372579 4.107034,-0.590261 4.31644,0.02241 0.209407,0.612677 -3.209005,2.040966 -3.399714,2.659718 -0.190709,0.618751 1.830514,3.72362 1.312535,4.112105 z"
         transform="translate(80.854312,124.62733)" />
      <path
         sodipodi:type="star"
         style="fill:#000000;stroke-width:0.175;stroke-linecap:round;stroke-linejoin:round"
         id="path19531"
         inkscape:flatsided="false"
         sodipodi:sides="5"
         sodipodi:cx="37.613857"
         sodipodi:cy="26.763706"
         sodipodi:r1="6.0278621"
         sodipodi:r2="2.4111447"
         sodipodi:arg1="0.92729522"
         sodipodi:arg2="1.5556138"
         inkscape:rounded="0.15"
         inkscape:randomized="0"
         d="m 41.230575,31.585996 c -0.51798,0.388485 -2.932712,-2.421253 -3.580112,-2.411423 -0.6474,0.0098 -2.975713,2.891585 -3.505249,2.519005 -0.529535,-0.37258 1.396491,-3.537382 1.187084,-4.150059 -0.209406,-0.612676 -3.669606,-1.936522 -3.478897,-2.555274 0.190709,-0.618752 3.79579,0.23503 4.31377,-0.153455 0.517979,-0.388484 0.707771,-4.088421 1.355171,-4.098251 0.6474,-0.0098 0.949437,3.682639 1.478972,4.055219 0.529536,0.372579 4.107034,-0.590261 4.31644,0.02241 0.209407,0.612677 -3.209005,2.040966 -3.399714,2.659718 -0.190709,0.618751 1.830514,3.72362 1.312535,4.112105 z"
         transform="translate(87.228193,114.94562)" />
      <path
         sodipodi:type="star"
         style="fill:#000000;stroke-width:0.175;stroke-linecap:round;stroke-linejoin:round"
         id="path19533"
         inkscape:flatsided="false"
         sodipodi:sides="5"
         sodipodi:cx="37.613857"
         sodipodi:cy="26.763706"
         sodipodi:r1="6.0278621"
         sodipodi:r2="2.4111447"
         sodipodi:arg1="0.92729522"
         sodipodi:arg2="1.5556138"
         inkscape:rounded="0.15"
         inkscape:randomized="0"
         d="m 41.230575,31.585996 c -0.51798,0.388485 -2.932712,-2.421253 -3.580112,-2.411423 -0.6474,0.0098 -2.975713,2.891585 -3.505249,2.519005 -0.529535,-0.37258 1.396491,-3.537382 1.187084,-4.150059 -0.209406,-0.612676 -3.669606,-1.936522 -3.478897,-2.555274 0.190709,-0.618752 3.79579,0.23503 4.31377,-0.153455 0.517979,-0.388484 0.707771,-4.088421 1.355171,-4.098251 0.6474,-0.0098 0.949437,3.682639 1.478972,4.055219 0.529536,0.372579 4.107034,-0.590261 4.31644,0.02241 0.209407,0.612677 -3.209005,2.040966 -3.399714,2.659718 -0.190709,0.618751 1.830514,3.72362 1.312535,4.112105 z"
         transform="translate(85.202041,94.225578)" />
      <path
         sodipodi:type="star"
         style="fill:#000000;stroke-width:0.175;stroke-linecap:round;stroke-linejoin:round"
         id="path19535"
         inkscape:flatsided="false"
         sodipodi:sides="5"
         sodipodi:cx="37.613857"
         sodipodi:cy="26.763706"
         sodipodi:r1="6.0278621"
         sodipodi:r2="2.4111447"
         sodipodi:arg1="0.92729522"
         sodipodi:arg2="1.5556138"
         inkscape:rounded="0.15"
         inkscape:randomized="0"
         d="m 41.230575,31.585996 c -0.51798,0.388485 -2.932712,-2.421253 -3.580112,-2.411423 -0.6474,0.0098 -2.975713,2.891585 -3.505249,2.519005 -0.529535,-0.37258 1.396491,-3.537382 1.187084,-4.150059 -0.209406,-0.612676 -3.669606,-1.936522 -3.478897,-2.555274 0.190709,-0.618752 3.79579,0.23503 4.31377,-0.153455 0.517979,-0.388484 0.707771,-4.088421 1.355171,-4.098251 0.6474,-0.0098 0.949437,3.682639 1.478972,4.055219 0.529536,0.372579 4.107034,-0.590261 4.31644,0.02241 0.209407,0.612677 -3.209005,2.040966 -3.399714,2.659718 -0.190709,0.618751 1.830514,3.72362 1.312535,4.112105 z"
         transform="translate(70.191777,94.32557)" />
      <path
         sodipodi:type="star"
         style="fill:#000000;stroke-width:0.175;stroke-linecap:round;stroke-linejoin:round"
         id="path19537"
         inkscape:flatsided="false"
         sodipodi:sides="5"
         sodipodi:cx="37.613857"
         sodipodi:cy="26.763706"
         sodipodi:r1="6.0278621"
         sodipodi:r2="2.4111447"
         sodipodi:arg1="0.92729522"
         sodipodi:arg2="1.5556138"
         inkscape:rounded="0.15"
         inkscape:randomized="0"
         d="m 41.230575,31.585996 c -0.51798,0.388485 -2.932712,-2.421253 -3.580112,-2.411423 -0.6474,0.0098 -2.975713,2.891585 -3.505249,2.519005 -0.529535,-0.37258 1.396491,-3.537382 1.187084,-4.150059 -0.209406,-0.612676 -3.669606,-1.936522 -3.478897,-2.555274 0.190709,-0.618752 3.79579,0.23503 4.31377,-0.153455 0.517979,-0.388484 0.707771,-4.088421 1.355171,-4.098251 0.6474,-0.0098 0.949437,3.682639 1.478972,4.055219 0.529536,0.372579 4.107034,-0.590261 4.31644,0.02241 0.209407,0.612677 -3.209005,2.040966 -3.399714,2.659718 -0.190709,0.618751 1.830514,3.72362 1.312535,4.112105 z"
         transform="translate(55.181513,102.29119)" />
      <path
         sodipodi:type="star"
         style="fill:#000000;stroke-width:0.175;stroke-linecap:round;stroke-linejoin:round"
         id="path19539"
         inkscape:flatsided="false"
         sodipodi:sides="5"
         sodipodi:cx="37.613857"
         sodipodi:cy="26.763706"
         sodipodi:r1="6.0278621"
         sodipodi:r2="2.4111447"
         sodipodi:arg1="0.92729522"
         sodipodi:arg2="1.5556138"
         inkscape:rounded="0.15"
         inkscape:randomized="0"
         d="m 41.230575,31.585996 c -0.51798,0.388485 -2.932712,-2.421253 -3.580112,-2.411423 -0.6474,0.0098 -2.975713,2.891585 -3.505249,2.519005 -0.529535,-0.37258 1.396491,-3.537382 1.187084,-4.150059 -0.209406,-0.612676 -3.669606,-1.936522 -3.478897,-2.555274 0.190709,-0.618752 3.79579,0.23503 4.31377,-0.153455 0.517979,-0.388484 0.707771,-4.088421 1.355171,-4.098251 0.6474,-0.0098 0.949437,3.682639 1.478972,4.055219 0.529536,0.372579 4.107034,-0.590261 4.31644,0.02241 0.209407,0.612677 -3.209005,2.040966 -3.399714,2.659718 -0.190709,0.618751 1.830514,3.72362 1.312535,4.112105 z"
         transform="translate(40.664637,98.640796)" />
      <path
         sodipodi:type="star"
         style="fill:#000000;stroke-width:0.175;stroke-linecap:round;stroke-linejoin:round"
         id="path19541"
         inkscape:flatsided="false"
         sodipodi:sides="5"
         sodipodi:cx="37.613857"
         sodipodi:cy="26.763706"
         sodipodi:r1="6.0278621"
         sodipodi:r2="2.4111447"
         sodipodi:arg1="0.92729522"
         sodipodi:arg2="1.5556138"
         inkscape:rounded="0.15"
         inkscape:randomized="0"
         d="m 41.230575,31.585996 c -0.51798,0.388485 -2.932712,-2.421253 -3.580112,-2.411423 -0.6474,0.0098 -2.975713,2.891585 -3.505249,2.519005 -0.529535,-0.37258 1.396491,-3.537382 1.187084,-4.150059 -0.209406,-0.612676 -3.669606,-1.936522 -3.478897,-2.555274 0.190709,-0.618752 3.79579,0.23503 4.31377,-0.153455 0.517979,-0.388484 0.707771,-4.088421 1.355171,-4.098251 0.6474,-0.0098 0.949437,3.682639 1.478972,4.055219 0.529536,0.372579 4.107034,-0.590261 4.31644,0.02241 0.209407,0.612677 -3.209005,2.040966 -3.399714,2.659718 -0.190709,0.618751 1.830514,3.72362 1.312535,4.112105 z"
         transform="translate(26.535454,83.600437)" />
      <path
         sodipodi:type="star"
         style="fill:#000000;stroke-width:0.175;stroke-linecap:round;stroke-linejoin:round"
         id="path19543"
         inkscape:flatsided="false"
         sodipodi:sides="5"
         sodipodi:cx="37.613857"
         sodipodi:cy="26.763706"
         sodipodi:r1="6.0278621"
         sodipodi:r2="2.4111447"
         sodipodi:arg1="0.92729522"
         sodipodi:arg2="1.5556138"
         inkscape:rounded="0.15"
         inkscape:randomized="0"
         d="m 41.230575,31.585996 c -0.51798,0.388485 -2.932712,-2.421253 -3.580112,-2.411423 -0.6474,0.0098 -2.975713,2.891585 -3.505249,2.519005 -0.529535,-0.37258 1.396491,-3.537382 1.187084,-4.150059 -0.209406,-0.612676 -3.669606,-1.936522 -3.478897,-2.555274 0.190709,-0.618752 3.79579,0.23503 4.31377,-0.153455 0.517979,-0.388484 0.707771,-4.088421 1.355171,-4.098251 0.6474,-0.0098 0.949437,3.682639 1.478972,4.055219 0.529536,0.372579 4.107034,-0.590261 4.31644,0.02241 0.209407,0.612677 -3.209005,2.040966 -3.399714,2.659718 -0.190709,0.618751 1.830514,3.72362 1.312535,4.112105 z"
         transform="translate(23.036727,74.074257)" />
      <path
         sodipodi:type="star"
         style="fill:#000000;stroke-width:0.175;stroke-linecap:round;stroke-linejoin:round"
         id="path19545"
         inkscape:flatsided="false"
         sodipodi:sides="5"
         sodipodi:cx="37.613857"
         sodipodi:cy="26.763706"
         sodipodi:r1="6.0278621"
         sodipodi:r2="2.4111447"
         sodipodi:arg1="0.92729522"
         sodipodi:arg2="1.5556138"
         inkscape:rounded="0.15"
         inkscape:randomized="0"
         d="m 41.230575,31.585996 c -0.51798,0.388485 -2.932712,-2.421253 -3.580112,-2.411423 -0.6474,0.0098 -2.975713,2.891585 -3.505249,2.519005 -0.529535,-0.37258 1.396491,-3.537382 1.187084,-4.150059 -0.209406,-0.612676 -3.669606,-1.936522 -3.478897,-2.555274 0.190709,-0.618752 3.79579,0.23503 4.31377,-0.153455 0.517979,-0.388484 0.707771,-4.088421 1.355171,-4.098251 0.6474,-0.0098 0.949437,3.682639 1.478972,4.055219 0.529536,0.372579 4.107034,-0.590261 4.31644,0.02241 0.209407,0.612677 -3.209005,2.040966 -3.399714,2.659718 -0.190709,0.618751 1.830514,3.72362 1.312535,4.112105 z"
         transform="translate(73.332115,26.905635)" />
    </g>
  </g>
</svg>
